<svg version="1.2" xmlns="http://www.w3.org/2000/svg" viewBox="0 0 1422 800" width="1422" height="800"><defs><linearGradient id="P" gradientUnits="userSpaceOnUse"/><linearGradient id="g1" x2="1" href="#P" gradientTransform="matrix(0,500.902,-1422,0,711,161.557)"><stop stop-color="#1f89db"/><stop offset="1" stop-color="#05970c"/></linearGradient><linearGradient id="g2" x2="1" href="#P" gradientTransform="matrix(0,500.184,-1422,0,711,154.911)"><stop stop-color="#1f89db"/><stop offset="1" stop-color="#05970c"/></linearGradient><linearGradient id="g3" x2="1" href="#P" gradientTransform="matrix(0,499.876,-1422,0,711,148.06)"><stop stop-color="#1f89db"/><stop offset="1" stop-color="#05970c"/></linearGradient><linearGradient id="g4" x2="1" href="#P" gradientTransform="matrix(0,500.594,-1422,0,711,140.697)"><stop stop-color="#1f89db"/><stop offset="1" stop-color="#05970c"/></linearGradient><linearGradient id="g5" x2="1" href="#P" gradientTransform="matrix(0,501.964,-1422,0,711,132.923)"><stop stop-color="#1f89db"/><stop offset="1" stop-color="#05970c"/></linearGradient><linearGradient id="g6" x2="1" href="#P" gradientTransform="matrix(0,504.118,-1422,0,711,124.805)"><stop stop-color="#1f89db"/><stop offset="1" stop-color="#05970c"/></linearGradient><linearGradient id="g7" x2="1" href="#P" gradientTransform="matrix(0,507.166,-1422,0,711,115.924)"><stop stop-color="#1f89db"/><stop offset="1" stop-color="#05970c"/></linearGradient><linearGradient id="g8" x2="1" href="#P" gradientTransform="matrix(0,511.19,-1422,0,711,106.58)"><stop stop-color="#1f89db"/><stop offset="1" stop-color="#05970c"/></linearGradient><linearGradient id="g9" x2="1" href="#P" gradientTransform="matrix(0,515.787,-1422,0,711,96.663)"><stop stop-color="#1f89db"/><stop offset="1" stop-color="#05970c"/></linearGradient><linearGradient id="g10" x2="1" href="#P" gradientTransform="matrix(0,521.552,-1422,0,711,86.059)"><stop stop-color="#1f89db"/><stop offset="1" stop-color="#05970c"/></linearGradient><linearGradient id="g11" x2="1" href="#P" gradientTransform="matrix(0,528.342,-1422,0,711,74.556)"><stop stop-color="#1f89db"/><stop offset="1" stop-color="#05970c"/></linearGradient><linearGradient id="g12" x2="1" href="#P" gradientTransform="matrix(0,536.003,-1422,0,711,62.222)"><stop stop-color="#1f89db"/><stop offset="1" stop-color="#05970c"/></linearGradient><linearGradient id="g13" x2="1" href="#P" gradientTransform="matrix(0,545.136,-1422,0,711,48.947)"><stop stop-color="#1f89db"/><stop offset="1" stop-color="#05970c"/></linearGradient><linearGradient id="g14" x2="1" href="#P" gradientTransform="matrix(0,555.329,-1422,0,711,34.611)"><stop stop-color="#1f89db"/><stop offset="1" stop-color="#05970c"/></linearGradient><linearGradient id="g15" x2="1" href="#P" gradientTransform="matrix(0,566.864,-1422,0,711,18.935)"><stop stop-color="#1f89db"/><stop offset="1" stop-color="#05970c"/></linearGradient></defs><style>.a{opacity:.05;fill:none;stroke:url(#g1);stroke-linecap:round}.b{opacity:.11;fill:none;stroke:url(#g2);stroke-linecap:round}.c{opacity:.18;fill:none;stroke:url(#g3);stroke-linecap:round}.d{opacity:.24;fill:none;stroke:url(#g4);stroke-linecap:round}.e{opacity:.3;fill:none;stroke:url(#g5);stroke-linecap:round}.f{opacity:.37;fill:none;stroke:url(#g6);stroke-linecap:round}.g{opacity:.43;fill:none;stroke:url(#g7);stroke-linecap:round}.h{opacity:.49;fill:none;stroke:url(#g8);stroke-linecap:round}.i{opacity:.56;fill:none;stroke:url(#g9);stroke-linecap:round}.j{opacity:.62;fill:none;stroke:url(#g10);stroke-linecap:round}.k{opacity:.68;fill:none;stroke:url(#g11);stroke-linecap:round}.l{opacity:.75;fill:none;stroke:url(#g12);stroke-linecap:round}.m{opacity:.81;fill:none;stroke:url(#g13);stroke-linecap:round}.n{opacity:.87;fill:none;stroke:url(#g14);stroke-linecap:round}.o{opacity:.94;fill:none;stroke:url(#g15);stroke-linecap:round}</style><path fill-rule="evenodd" class="a" d="m0 448q355.5-548 711-48 355.5 500 711 48"/><path fill-rule="evenodd" class="b" d="m0 420q355.5-520 711-20 355.5 500 711 20"/><path fill-rule="evenodd" class="c" d="m0 392q355.5-492 711 8 355.5 500 711-8"/><path fill-rule="evenodd" class="d" d="m0 364q355.5-464 711 36 355.5 500 711-36"/><path fill-rule="evenodd" class="e" d="m0 336q355.5-436 711 64 355.5 500 711-64"/><path fill-rule="evenodd" class="f" d="m0 308q355.5-408 711 92 355.5 500 711-92"/><path fill-rule="evenodd" class="g" d="m0 280q355.5-380 711 120 355.5 500 711-120"/><path fill-rule="evenodd" class="h" d="m0 252q355.5-352 711 148 355.5 500 711-148"/><path fill-rule="evenodd" class="i" d="m0 224q355.5-324 711 176 355.5 500 711-176"/><path fill-rule="evenodd" class="j" d="m0 196q355.5-296 711 204 355.5 500 711-204"/><path fill-rule="evenodd" class="k" d="m0 168q355.5-268 711 232 355.5 500 711-232"/><path fill-rule="evenodd" class="l" d="m0 140q355.5-240 711 260 355.5 500 711-260"/><path fill-rule="evenodd" class="m" d="m0 112q355.5-212 711 288 355.5 500 711-288"/><path fill-rule="evenodd" class="n" d="m0 84q355.5-184 711 316 355.5 500 711-316"/><path fill-rule="evenodd" class="o" d="m0 56q355.5-156 711 344 355.5 500 711-344"/></svg>
